# xmcd CD database file
#
# Track frame offsets:
#	150
#	12810
#	26027
#	52842
#	70080
#	83182
#	96102
#	108382
#	121000
#	133037
#	145055
#	172495
#	185882
#	204242
#	217232
#	248890
#
# Disc length: 3753 seconds
#
# Revision: 0
# Processed by: cddbd v1.5.2PL0 Copyright (c) Steve Scherf et al.
# Submitted via: CDex 1.70beta2
#
DISCID=e70ea710
DTITLE=VA - Gallo Music Production - African Jazz Collection
DYEAR=1992
DGENRE=Jazz
TTITLE0=De Makeba - Jazz Dazzlers
TTITLE1=Pula Kgosi Serets - Skylarks
TTITLE2=Blues for Hughie - Jazz Epistles
TTITLE3=Uku-Jonga Phambili - Jazz Epistles
TTITLE4=Meva - Spokes Mshhiyane
TTITLE5=Kwela - Spokes Mshhiyane
TTITLE6=King Kong - Original Stage Cast
TTITLE7=Better Than New - Original Stage Cast
TTITLE8=U.S. Special - N.D. Hotshots
TTITLE9=Loafers Corner - Orlando Seven
TTITLE10=Zavolo - Zacks Nkosi
TTITLE11=Jezza - Zacks Nkosi
TTITLE12=Tlhani - Tananas
TTITLE13=Spiral - Tananas
TTITLE14=Skokiaan - African Jazz Pioneers
TTITLE15=Hellfire - African Jazz Pioneers
EXTD=YEAR: 1992
EXTT0=
EXTT1=
EXTT2=
EXTT3=
EXTT4=
EXTT5=
EXTT6=
EXTT7=
EXTT8=
EXTT9=
EXTT10=
EXTT11=
EXTT12=
EXTT13=
EXTT14=
EXTT15=
PLAYORDER=
